# This file uses centimeters as units for non-parametric coordinates.

mtllib ShotgunModel.mtl
g default
v 0.951057 1.503828 -0.309017
v 0.809018 1.503828 -0.587786
v 0.587786 1.503828 -0.809017
v 0.309017 1.503828 -0.951057
v 0.000000 1.503828 -1.000000
v -0.309017 1.503828 -0.951057
v -0.587785 1.503828 -0.809017
v -0.809017 1.503828 -0.587785
v -0.951057 1.503828 -0.309017
v -1.000000 1.503828 0.000000
v -0.951057 1.503828 0.309017
v -0.809017 1.503828 0.587785
v -0.587785 1.503828 0.809017
v -0.309017 1.503828 0.951057
v -0.000000 1.503828 1.000000
v 0.309017 1.503828 0.951057
v 0.587785 1.503828 0.809017
v 0.809017 1.503828 0.587785
v 0.951057 1.503828 0.309017
v 1.000000 1.503828 0.000000
v 0.951057 5.105762 -0.309017
v 0.809018 5.105762 -0.587786
v 0.587786 5.105762 -0.809017
v 0.309017 5.105762 -0.951057
v 0.000000 5.105762 -1.000000
v -0.309017 5.105762 -0.951057
v -0.587785 5.105762 -0.809017
v -0.809017 5.105762 -0.587785
v -0.951057 5.105762 -0.309017
v -1.000000 5.105762 0.000000
v -0.951057 5.105762 0.309017
v -0.809017 5.105762 0.587785
v -0.587785 5.105762 0.809017
v -0.309017 5.105762 0.951057
v -0.000000 5.105762 1.000000
v 0.309017 5.105762 0.951057
v 0.587785 5.105762 0.809017
v 0.809017 5.105762 0.587785
v 0.951057 5.105762 0.309017
v 1.000000 5.105762 0.000000
v 0.000000 5.105762 0.000000
v 0.848759 0.589672 -0.275779
v 0.721998 0.589672 -0.524562
v 0.524562 0.589672 -0.721998
v 0.275779 0.589672 -0.848759
v -0.000000 0.589672 -0.892438
v -0.275779 0.589672 -0.848759
v -0.524562 0.589672 -0.721998
v -0.721998 0.589672 -0.524562
v -0.848759 0.589672 -0.275779
v -0.892438 0.589672 -0.000000
v -0.848759 0.589672 0.275779
v -0.721998 0.589672 0.524562
v -0.524562 0.589672 0.721997
v -0.275779 0.589672 0.848759
v -0.000000 0.589672 0.892438
v 0.275778 0.589672 0.848759
v 0.524562 0.589672 0.721997
v 0.721997 0.589672 0.524562
v 0.848759 0.589672 0.275779
v 0.892438 0.589672 -0.000000
v 0.973555 0.378855 -0.316327
v 0.828156 0.378855 -0.601691
v 0.000000 0.378855 -0.000000
v 0.601691 0.378855 -0.828156
v 0.316327 0.378855 -0.973555
v 0.000000 0.378855 -1.023657
v -0.316327 0.378855 -0.973555
v -0.601690 0.378855 -0.828156
v -0.828156 0.378855 -0.601690
v -0.973555 0.378855 -0.316327
v -1.023656 0.378855 0.000000
v -0.973555 0.378855 0.316327
v -0.828156 0.378855 0.601690
v -0.601690 0.378855 0.828155
v -0.316327 0.378855 0.973555
v -0.000000 0.378855 1.023656
v 0.316327 0.378855 0.973555
v 0.601690 0.378855 0.828155
v 0.828155 0.378855 0.601690
v 0.973555 0.378855 0.316328
v 1.023656 0.378855 0.000000
vt 0.648603 0.107966
vt 0.626409 0.064408
vt 0.591842 0.029841
vt 0.548284 0.007647
vt 0.500000 -0.000000
vt 0.451716 0.007647
vt 0.408159 0.029841
vt 0.373591 0.064409
vt 0.351397 0.107966
vt 0.343750 0.156250
vt 0.351397 0.204534
vt 0.373591 0.248091
vt 0.408159 0.282659
vt 0.451716 0.304853
vt 0.500000 0.312500
vt 0.548284 0.304853
vt 0.591841 0.282659
vt 0.626409 0.248091
vt 0.648603 0.204534
vt 0.656250 0.156250
vt 0.375000 0.312500
vt 0.387500 0.312500
vt 0.400000 0.312500
vt 0.412500 0.312500
vt 0.425000 0.312500
vt 0.437500 0.312500
vt 0.450000 0.312500
vt 0.462500 0.312500
vt 0.475000 0.312500
vt 0.487500 0.312500
vt 0.500000 0.312500
vt 0.512500 0.312500
vt 0.525000 0.312500
vt 0.537500 0.312500
vt 0.550000 0.312500
vt 0.562500 0.312500
vt 0.575000 0.312500
vt 0.587500 0.312500
vt 0.600000 0.312500
vt 0.612500 0.312500
vt 0.625000 0.312500
vt 0.375000 0.687500
vt 0.387500 0.687500
vt 0.400000 0.687500
vt 0.412500 0.687500
vt 0.425000 0.687500
vt 0.437500 0.687500
vt 0.450000 0.687500
vt 0.462500 0.687500
vt 0.475000 0.687500
vt 0.487500 0.687500
vt 0.500000 0.687500
vt 0.512500 0.687500
vt 0.525000 0.687500
vt 0.537500 0.687500
vt 0.550000 0.687500
vt 0.562500 0.687500
vt 0.575000 0.687500
vt 0.587500 0.687500
vt 0.600000 0.687500
vt 0.612500 0.687500
vt 0.625000 0.687500
vt 0.648603 0.795466
vt 0.626409 0.751908
vt 0.591842 0.717341
vt 0.548284 0.695147
vt 0.500000 0.687500
vt 0.451716 0.695147
vt 0.408159 0.717341
vt 0.373591 0.751909
vt 0.351397 0.795466
vt 0.343750 0.843750
vt 0.351397 0.892034
vt 0.373591 0.935591
vt 0.408159 0.970159
vt 0.451716 0.992353
vt 0.500000 1.000000
vt 0.548284 0.992353
vt 0.591841 0.970159
vt 0.626409 0.935591
vt 0.648603 0.892034
vt 0.656250 0.843750
vt 0.500000 0.156250
vt 0.500000 0.843750
vt 0.626409 0.064408
vt 0.648603 0.107966
vt 0.591842 0.029841
vt 0.548284 0.007647
vt 0.500000 -0.000000
vt 0.451716 0.007647
vt 0.408159 0.029841
vt 0.373591 0.064409
vt 0.351397 0.107966
vt 0.343750 0.156250
vt 0.351397 0.204534
vt 0.373591 0.248091
vt 0.408159 0.282659
vt 0.451716 0.304853
vt 0.500000 0.312500
vt 0.548284 0.304853
vt 0.591841 0.282659
vt 0.626409 0.248091
vt 0.648603 0.204534
vt 0.656250 0.156250
vt 0.626409 0.064408
vt 0.648603 0.107966
vt 0.591842 0.029841
vt 0.548284 0.007647
vt 0.500000 -0.000000
vt 0.451716 0.007647
vt 0.408159 0.029841
vt 0.373591 0.064409
vt 0.351397 0.107966
vt 0.343750 0.156250
vt 0.351397 0.204534
vt 0.373591 0.248091
vt 0.408159 0.282659
vt 0.451716 0.304853
vt 0.500000 0.312500
vt 0.548284 0.304853
vt 0.591841 0.282659
vt 0.626409 0.248091
vt 0.648603 0.204534
vt 0.656250 0.156250
vn 0.950815 -0.022565 -0.308937
vn 0.808811 -0.022565 -0.587636
vn 0.809017 0.000000 -0.587785
vn 0.951057 0.000000 -0.309016
vn 0.587636 -0.022565 -0.808811
vn 0.587785 0.000000 -0.809017
vn 0.308938 -0.022565 -0.950814
vn 0.309017 0.000000 -0.951057
vn -0.000000 -0.022565 -0.999745
vn -0.000000 0.000000 -1.000000
vn -0.308938 -0.022565 -0.950814
vn -0.309017 0.000000 -0.951056
vn -0.587636 -0.022565 -0.808811
vn -0.587785 0.000000 -0.809017
vn -0.808811 -0.022565 -0.587635
vn -0.809017 0.000000 -0.587785
vn -0.950814 -0.022565 -0.308938
vn -0.951057 0.000000 -0.309017
vn -0.999745 -0.022565 0.000000
vn -1.000000 0.000000 0.000000
vn -0.950814 -0.022565 0.308938
vn -0.951057 0.000000 0.309017
vn -0.808811 -0.022565 0.587636
vn -0.809017 0.000000 0.587785
vn -0.587636 -0.022565 0.808811
vn -0.587785 0.000000 0.809017
vn -0.308938 -0.022565 0.950814
vn -0.309017 0.000000 0.951057
vn 0.000000 -0.022565 0.999745
vn 0.000000 0.000000 1.000000
vn 0.308938 -0.022565 0.950814
vn 0.309017 0.000000 0.951057
vn 0.587636 -0.022565 0.808811
vn 0.587785 0.000000 0.809017
vn 0.808811 -0.022565 0.587636
vn 0.809017 0.000000 0.587785
vn 0.950814 -0.022565 0.308938
vn 0.951057 0.000000 0.309017
vn 0.999745 -0.022565 0.000001
vn 1.000000 0.000000 0.000001
vn 0.000000 -1.000000 -0.000000
vn 0.000000 -1.000000 -0.000000
vn 0.000000 -1.000000 0.000000
vn 0.000000 -1.000000 0.000000
vn 0.000000 -1.000000 0.000000
vn 0.000000 -1.000000 0.000000
vn 0.000000 -1.000000 0.000000
vn 0.000000 -1.000000 0.000000
vn 0.000000 -1.000000 0.000000
vn 0.000000 -1.000000 0.000000
vn 0.000000 -1.000000 0.000000
vn 0.000000 -1.000000 0.000000
vn 0.000000 -1.000000 0.000000
vn 0.000000 -1.000000 0.000000
vn 0.000000 -1.000000 -0.000000
vn 0.000000 -1.000000 -0.000000
vn 0.000000 -1.000000 0.000000
vn 0.000000 -1.000000 0.000000
vn 0.000000 -1.000000 0.000000
vn 0.000000 -1.000000 0.000000
vn 0.000000 -1.000000 0.000000
vn 0.000000 1.000000 0.000000
vn 0.000000 1.000000 0.000000
vn 0.000000 1.000000 -0.000000
vn 0.000000 1.000000 0.000000
vn 0.000000 1.000000 0.000000
vn 0.000000 1.000000 0.000000
vn 0.000000 1.000000 0.000000
vn 0.000000 1.000000 0.000000
vn 0.000000 1.000000 -0.000000
vn 0.000000 1.000000 -0.000001
vn 0.000000 1.000000 0.000000
vn 0.000000 1.000000 0.000000
vn 0.000000 1.000000 0.000000
vn 0.000000 1.000000 0.000000
vn 0.000000 1.000000 0.000000
vn 0.000000 1.000000 0.000000
vn 0.000000 1.000000 0.000000
vn 0.000000 1.000000 0.000000
vn 0.000000 1.000000 0.000000
vn 0.000000 1.000000 0.000000
vn 0.000000 1.000000 0.000000
vn 0.944541 -0.116857 -0.306899
vn 0.803474 -0.116856 -0.583758
vn 0.583758 -0.116856 -0.803474
vn 0.306900 -0.116856 -0.944541
vn -0.000000 -0.116856 -0.993149
vn -0.306900 -0.116857 -0.944541
vn -0.583758 -0.116856 -0.803474
vn -0.803474 -0.116856 -0.583758
vn -0.944541 -0.116856 -0.306900
vn -0.993149 -0.116856 0.000000
vn -0.944541 -0.116856 0.306900
vn -0.803474 -0.116857 0.583758
vn -0.583758 -0.116857 0.803474
vn -0.306900 -0.116857 0.944541
vn 0.000000 -0.116857 0.993149
vn 0.306900 -0.116857 0.944541
vn 0.583758 -0.116857 0.803474
vn 0.803474 -0.116857 0.583759
vn 0.944541 -0.116856 0.306900
vn 0.993149 -0.116856 0.000001
vn 0.759043 0.523715 -0.386751
vn 0.759043 0.523715 -0.386751
vn 0.759043 0.523715 -0.386751
vn 0.759043 0.523715 -0.386751
vn 0.602380 0.523715 -0.602380
vn 0.602380 0.523715 -0.602380
vn 0.602380 0.523715 -0.602380
vn 0.602379 0.523715 -0.602380
vn 0.386751 0.523715 -0.759043
vn 0.386751 0.523715 -0.759043
vn 0.386751 0.523715 -0.759043
vn 0.386751 0.523715 -0.759043
vn 0.133265 0.523714 -0.841406
vn 0.133265 0.523714 -0.841406
vn 0.133265 0.523714 -0.841406
vn 0.133265 0.523714 -0.841406
vn -0.133266 0.523714 -0.841406
vn -0.133266 0.523714 -0.841406
vn -0.133266 0.523714 -0.841406
vn -0.133266 0.523714 -0.841406
vn -0.386751 0.523714 -0.759043
vn -0.386751 0.523714 -0.759043
vn -0.386751 0.523714 -0.759043
vn -0.386751 0.523714 -0.759043
vn -0.602380 0.523715 -0.602380
vn -0.602380 0.523715 -0.602380
vn -0.602380 0.523715 -0.602380
vn -0.602380 0.523715 -0.602380
vn -0.759043 0.523715 -0.386751
vn -0.759043 0.523715 -0.386751
vn -0.759043 0.523715 -0.386751
vn -0.759043 0.523715 -0.386751
vn -0.841406 0.523714 -0.133266
vn -0.841406 0.523714 -0.133266
vn -0.841406 0.523714 -0.133266
vn -0.841406 0.523714 -0.133266
vn -0.841406 0.523714 0.133265
vn -0.841406 0.523714 0.133265
vn -0.841406 0.523714 0.133265
vn -0.841406 0.523714 0.133265
vn -0.759043 0.523715 0.386752
vn -0.759043 0.523715 0.386752
vn -0.759043 0.523715 0.386752
vn -0.759043 0.523715 0.386752
vn -0.602380 0.523715 0.602380
vn -0.602380 0.523715 0.602380
vn -0.602380 0.523715 0.602380
vn -0.602380 0.523715 0.602380
vn -0.386752 0.523715 0.759043
vn -0.386752 0.523715 0.759043
vn -0.386752 0.523715 0.759043
vn -0.386752 0.523715 0.759043
vn -0.133265 0.523715 0.841406
vn -0.133265 0.523715 0.841406
vn -0.133265 0.523715 0.841406
vn -0.133265 0.523715 0.841406
vn 0.133265 0.523714 0.841406
vn 0.133265 0.523714 0.841406
vn 0.133265 0.523714 0.841406
vn 0.133265 0.523714 0.841406
vn 0.386752 0.523715 0.759043
vn 0.386752 0.523715 0.759043
vn 0.386752 0.523715 0.759043
vn 0.386752 0.523715 0.759043
vn 0.602379 0.523715 0.602380
vn 0.602379 0.523715 0.602380
vn 0.602379 0.523715 0.602380
vn 0.602379 0.523715 0.602380
vn 0.759043 0.523715 0.386752
vn 0.759043 0.523715 0.386752
vn 0.759043 0.523715 0.386752
vn 0.759043 0.523715 0.386752
vn 0.841406 0.523714 0.133266
vn 0.841406 0.523714 0.133266
vn 0.841406 0.523714 0.133266
vn 0.841406 0.523714 0.133266
vn 0.841406 0.523714 -0.133264
vn 0.841406 0.523714 -0.133264
vn 0.841406 0.523714 -0.133264
vn 0.841406 0.523714 -0.133264
s 1
g pCylinder1
usemtl lambert2SG
f 1/21/1 2/22/2 22/43/3 21/42/4
f 2/22/2 3/23/5 23/44/6 22/43/3
f 3/23/5 4/24/7 24/45/8 23/44/6
f 4/24/7 5/25/9 25/46/10 24/45/8
f 5/25/9 6/26/11 26/47/12 25/46/10
f 6/26/11 7/27/13 27/48/14 26/47/12
f 7/27/13 8/28/15 28/49/16 27/48/14
f 8/28/15 9/29/17 29/50/18 28/49/16
f 9/29/17 10/30/19 30/51/20 29/50/18
f 10/30/19 11/31/21 31/52/22 30/51/20
f 11/31/21 12/32/23 32/53/24 31/52/22
f 12/32/23 13/33/25 33/54/26 32/53/24
f 13/33/25 14/34/27 34/55/28 33/54/26
f 14/34/27 15/35/29 35/56/30 34/55/28
f 15/35/29 16/36/31 36/57/32 35/56/30
f 16/36/31 17/37/33 37/58/34 36/57/32
f 17/37/33 18/38/35 38/59/36 37/58/34
f 18/38/35 19/39/37 39/60/38 38/59/36
f 19/39/37 20/40/39 40/61/40 39/60/38
f 20/40/39 1/41/1 21/62/4 40/61/40
s 2
usemtl blinn1SG
f 63/105/41 62/106/42 64/83/43
f 65/107/44 63/105/41 64/83/43
f 66/108/45 65/107/44 64/83/43
f 67/109/46 66/108/45 64/83/43
f 68/110/47 67/109/46 64/83/43
f 69/111/48 68/110/47 64/83/43
f 70/112/49 69/111/48 64/83/43
f 71/113/50 70/112/49 64/83/43
f 72/114/51 71/113/50 64/83/43
f 73/115/52 72/114/51 64/83/43
f 74/116/53 73/115/52 64/83/43
f 75/117/54 74/116/53 64/83/43
f 76/118/55 75/117/54 64/83/43
f 77/119/56 76/118/55 64/83/43
f 78/120/57 77/119/56 64/83/43
f 79/121/58 78/120/57 64/83/43
f 80/122/59 79/121/58 64/83/43
f 81/123/60 80/122/59 64/83/43
f 82/124/61 81/123/60 64/83/43
f 62/106/42 82/124/61 64/83/43
s 3
usemtl lambert2SG
f 21/81/62 22/80/63 41/84/64
f 22/80/63 23/79/65 41/84/64
f 23/79/65 24/78/66 41/84/64
f 24/78/66 25/77/67 41/84/64
f 25/77/67 26/76/68 41/84/64
f 26/76/68 27/75/69 41/84/64
f 27/75/69 28/74/70 41/84/64
f 28/74/70 29/73/71 41/84/64
f 29/73/71 30/72/72 41/84/64
f 30/72/72 31/71/73 41/84/64
f 31/71/73 32/70/74 41/84/64
f 32/70/74 33/69/75 41/84/64
f 33/69/75 34/68/76 41/84/64
f 34/68/76 35/67/77 41/84/64
f 35/67/77 36/66/78 41/84/64
f 36/66/78 37/65/79 41/84/64
f 37/65/79 38/64/80 41/84/64
f 38/64/80 39/63/81 41/84/64
f 39/63/81 40/82/82 41/84/64
f 40/82/82 21/81/62 41/84/64
s 1
usemtl blinn1SG
f 2/2/2 1/1/1 42/86/83 43/85/84
f 3/3/5 2/2/2 43/85/84 44/87/85
f 4/4/7 3/3/5 44/87/85 45/88/86
f 5/5/9 4/4/7 45/88/86 46/89/87
f 6/6/11 5/5/9 46/89/87 47/90/88
f 7/7/13 6/6/11 47/90/88 48/91/89
f 8/8/15 7/7/13 48/91/89 49/92/90
f 9/9/17 8/8/15 49/92/90 50/93/91
f 10/10/19 9/9/17 50/93/91 51/94/92
f 11/11/21 10/10/19 51/94/92 52/95/93
f 12/12/23 11/11/21 52/95/93 53/96/94
f 13/13/25 12/12/23 53/96/94 54/97/95
f 14/14/27 13/13/25 54/97/95 55/98/96
f 15/15/29 14/14/27 55/98/96 56/99/97
f 16/16/31 15/15/29 56/99/97 57/100/98
f 17/17/33 16/16/31 57/100/98 58/101/99
f 18/18/35 17/17/33 58/101/99 59/102/100
f 19/19/37 18/18/35 59/102/100 60/103/101
f 20/20/39 19/19/37 60/103/101 61/104/102
f 1/1/1 20/20/39 61/104/102 42/86/83
s off
f 43/85/103 42/86/104 62/106/105 63/105/106
f 44/87/107 43/85/108 63/105/109 65/107/110
f 45/88/111 44/87/112 65/107/113 66/108/114
f 46/89/115 45/88/116 66/108/117 67/109/118
f 47/90/119 46/89/120 67/109/121 68/110/122
f 48/91/123 47/90/124 68/110/125 69/111/126
f 49/92/127 48/91/128 69/111/129 70/112/130
f 50/93/131 49/92/132 70/112/133 71/113/134
f 51/94/135 50/93/136 71/113/137 72/114/138
f 52/95/139 51/94/140 72/114/141 73/115/142
f 53/96/143 52/95/144 73/115/145 74/116/146
f 54/97/147 53/96/148 74/116/149 75/117/150
f 55/98/151 54/97/152 75/117/153 76/118/154
f 56/99/155 55/98/156 76/118/157 77/119/158
f 57/100/159 56/99/160 77/119/161 78/120/162
f 58/101/163 57/100/164 78/120/165 79/121/166
f 59/102/167 58/101/168 79/121/169 80/122/170
f 60/103/171 59/102/172 80/122/173 81/123/174
f 61/104/175 60/103/176 81/123/177 82/124/178
f 42/86/179 61/104/180 82/124/181 62/106/182
