<?xml version="1.0" standalone="no"?>
<!DOCTYPE svg PUBLIC "-//W3C//DTD SVG 1.1//EN" 
  "http://www.w3.org/Graphics/SVG/1.1/DTD/svg11.dtd">
<svg width="128" height="128" viewBox="0 0 128 128"
     xmlns="http://www.w3.org/2000/svg" version="1.1">
<desc>shotgun001.blend, (Blender 4.2.2 LTS)</desc>
<polygon stroke="black" stroke-width="1" fill="rgb(204, 204, 204)" fill-opacity="0.25" points="46.998,57.996 46.998,52.996 6.998,52.996 6.998,57.996 " />
<polygon stroke="black" stroke-width="1" fill="rgb(204, 204, 204)" fill-opacity="0.25" points="71.998,57.996 71.998,52.996 46.998,52.996 46.998,57.996 " />
<polygon stroke="black" stroke-width="1" fill="rgb(204, 204, 204)" fill-opacity="0.25" points="71.998,52.996 71.998,35.996 46.998,35.996 46.998,52.996 " />
<polygon stroke="black" stroke-width="1" fill="rgb(204, 204, 204)" fill-opacity="0.25" points="46.998,52.996 46.998,35.996 6.998,45.996 6.998,52.996 " />
<polygon stroke="black" stroke-width="1" fill="rgb(204, 204, 204)" fill-opacity="0.25" points="50.000,0.000 50.000,5.000 118.000,5.000 118.000,0.000 " />
<polygon stroke="black" stroke-width="1" fill="rgb(204, 204, 204)" fill-opacity="0.25" points="50.000,5.000 50.000,25.000 118.000,25.000 123.000,20.000 123.000,10.000 118.000,5.000 " />
<polygon stroke="black" stroke-width="1" fill="rgb(204, 204, 204)" fill-opacity="0.25" points="118.000,0.000 118.000,5.000 125.000,5.000 125.000,0.000 " />
<polygon stroke="black" stroke-width="1" fill="rgb(204, 204, 204)" fill-opacity="0.25" points="128.000,20.000 128.000,10.000 123.000,10.000 123.000,20.000 " />
<polygon stroke="black" stroke-width="1" fill="rgb(204, 204, 204)" fill-opacity="0.25" points="118.000,25.000 118.000,30.000 125.000,30.000 125.000,25.000 " />
<polygon stroke="black" stroke-width="1" fill="rgb(204, 204, 204)" fill-opacity="0.25" points="50.000,25.000 50.000,30.000 118.000,30.000 118.000,25.000 " />
<polygon stroke="black" stroke-width="1" fill="rgb(204, 204, 204)" fill-opacity="0.25" points="47.000,36.000 47.000,31.000 7.000,31.000 7.000,36.000 " />
<polygon stroke="black" stroke-width="1" fill="rgb(204, 204, 204)" fill-opacity="0.25" points="7.000,53.000 7.000,46.000 2.062,46.000 2.062,53.000 " />
<polygon stroke="black" stroke-width="1" fill="rgb(204, 204, 204)" fill-opacity="0.25" points="71.998,35.996 71.998,30.996 46.998,30.996 46.998,35.996 " />
<polygon stroke="black" stroke-width="1" fill="rgb(204, 204, 204)" fill-opacity="0.25" points="55.000,77.000 60.000,77.000 60.000,72.000 " />
<polygon stroke="black" stroke-width="1" fill="rgb(204, 204, 204)" fill-opacity="0.25" points="60.000,72.000 60.000,77.000 119.000,77.000 119.000,72.000 " />
<polygon stroke="black" stroke-width="1" fill="rgb(204, 204, 204)" fill-opacity="0.25" points="60.000,72.000 60.000,77.000 119.000,77.000 119.000,72.000 " />
<polygon stroke="black" stroke-width="1" fill="rgb(204, 204, 204)" fill-opacity="0.25" points="55.000,82.000 60.000,82.000 60.000,77.000 " />
<polygon stroke="black" stroke-width="1" fill="rgb(204, 204, 204)" fill-opacity="0.25" points="60.000,77.000 60.000,82.000 119.000,82.000 119.000,77.000 " />
<polygon stroke="black" stroke-width="1" fill="rgb(204, 204, 204)" fill-opacity="0.25" points="60.000,77.000 60.000,82.000 119.000,82.000 119.000,77.000 " />
<polygon stroke="black" stroke-width="1" fill="rgb(204, 204, 204)" fill-opacity="0.25" points="126.500,120.000 126.500,110.000 119.000,110.000 119.000,120.000 " />
<polygon stroke="black" stroke-width="1" fill="rgb(204, 204, 204)" fill-opacity="0.25" points="84.812,125.500 84.812,118.000 53.000,118.000 53.000,125.500 " />
<polygon stroke="black" stroke-width="1" fill="rgb(204, 204, 204)" fill-opacity="0.25" points="119.000,120.000 119.000,110.000 111.375,102.000 48.000,102.000 48.000,112.688 53.000,118.000 84.812,118.000 87.000,120.000 " />
<polygon stroke="black" stroke-width="1" fill="rgb(204, 204, 204)" fill-opacity="0.25" points="111.375,94.500 111.375,102.000 122.375,102.000 122.375,94.500 " />
<polygon stroke="black" stroke-width="1" fill="rgb(204, 204, 204)" fill-opacity="0.25" points="31.000,5.000 31.000,0.000 28.000,0.000 28.000,5.000 " />
<polygon stroke="black" stroke-width="1" fill="rgb(204, 204, 204)" fill-opacity="0.25" points="53.000,125.500 53.000,118.000 46.000,118.000 46.000,125.500 " />
<polygon stroke="black" stroke-width="1" fill="rgb(204, 204, 204)" fill-opacity="0.25" points="32.000,24.512 32.000,4.523 30.000,6.005 30.000,22.995 " />
<polygon stroke="black" stroke-width="1" fill="rgb(204, 204, 204)" fill-opacity="0.25" points="95.000,37.000 95.000,31.000 80.000,31.000 80.000,37.000 " />
<polygon stroke="black" stroke-width="1" fill="rgb(204, 204, 204)" fill-opacity="0.25" points="92.000,42.000 77.000,50.000 77.000,61.000 92.000,61.000 " />
<polygon stroke="black" stroke-width="1" fill="rgb(204, 204, 204)" fill-opacity="0.25" points="95.000,42.000 95.000,37.000 80.000,37.000 77.500,42.000 " />
<polygon stroke="black" stroke-width="1" fill="rgb(204, 204, 204)" fill-opacity="0.25" points="95.000,37.000 95.000,42.000 111.000,42.000 111.000,37.000 " />
<polygon stroke="black" stroke-width="1" fill="rgb(204, 204, 204)" fill-opacity="0.25" points="111.000,37.000 116.000,37.000 116.000,31.000 111.000,31.000 " />
<polygon stroke="black" stroke-width="1" fill="rgb(204, 204, 204)" fill-opacity="0.25" points="111.000,37.000 111.000,42.000 116.000,37.000 " />
<polygon stroke="black" stroke-width="1" fill="rgb(204, 204, 204)" fill-opacity="0.25" points="94.500,42.000 92.000,42.000 92.000,61.000 94.500,61.000 " />
<polygon stroke="black" stroke-width="1" fill="rgb(204, 204, 204)" fill-opacity="0.25" points="2.000,86.606 6.000,86.606 6.000,61.997 2.000,61.997 " />
<polygon stroke="black" stroke-width="1" fill="rgb(204, 204, 204)" fill-opacity="0.25" points="34.997,64.001 23.997,64.001 23.997,120.001 34.997,120.001 " />
<polygon stroke="black" stroke-width="1" fill="rgb(204, 204, 204)" fill-opacity="0.25" points="38.997,64.001 34.997,64.001 34.997,120.001 38.997,120.001 " />
<polygon stroke="black" stroke-width="1" fill="rgb(204, 204, 204)" fill-opacity="0.25" points="15.997,57.995 5.997,57.995 5.997,61.995 15.997,61.995 " />
<polygon stroke="black" stroke-width="1" fill="rgb(204, 204, 204)" fill-opacity="0.25" points="5.997,86.606 16.045,86.627 15.998,61.998 5.998,61.998 " />
<polygon stroke="black" stroke-width="1" fill="rgb(204, 204, 204)" fill-opacity="0.25" points="76.981,50.006 74.519,50.006 74.519,61.025 76.981,61.025 " />
<polygon stroke="black" stroke-width="1" fill="rgb(204, 204, 204)" fill-opacity="0.25" points="116.000,44.000 118.500,44.000 118.500,37.000 116.000,37.000 " />
<polygon stroke="black" stroke-width="1" fill="rgb(204, 204, 204)" fill-opacity="0.25" points="116.000,37.000 118.500,37.000 118.500,31.000 116.000,31.000 " />
<polygon stroke="black" stroke-width="1" fill="rgb(204, 204, 204)" fill-opacity="0.25" points="95.000,44.500 95.000,47.000 111.000,47.000 111.000,44.500 " />
<polygon stroke="black" stroke-width="1" fill="rgb(204, 204, 204)" fill-opacity="0.25" points="76.981,50.006 76.981,45.000 74.519,45.000 74.519,50.006 " />
<polygon stroke="black" stroke-width="1" fill="rgb(204, 204, 204)" fill-opacity="0.25" points="80.000,37.000 80.000,31.000 77.500,31.000 77.500,37.000 " />
<polygon stroke="black" stroke-width="1" fill="rgb(204, 204, 204)" fill-opacity="0.25" points="31.000,5.000 31.000,0.000 28.000,0.000 28.000,5.000 " />
<polygon stroke="black" stroke-width="1" fill="rgb(204, 204, 204)" fill-opacity="0.25" points="111.375,102.000 111.375,94.500 48.000,94.500 48.000,102.000 " />
<polygon stroke="black" stroke-width="1" fill="rgb(204, 204, 204)" fill-opacity="0.25" points="50.000,30.000 50.000,25.000 32.000,25.000 32.000,30.000 " />
<polygon stroke="black" stroke-width="1" fill="rgb(204, 204, 204)" fill-opacity="0.25" points="48.000,112.688 48.000,102.000 40.500,102.000 40.500,112.688 " />
<polygon stroke="black" stroke-width="1" fill="rgb(204, 204, 204)" fill-opacity="0.25" points="50.000,25.000 50.000,5.000 32.000,5.000 32.000,25.000 " />
<polygon stroke="black" stroke-width="1" fill="rgb(204, 204, 204)" fill-opacity="0.25" points="50.000,5.000 50.000,0.000 32.000,0.000 32.000,5.000 " />
<polygon stroke="black" stroke-width="1" fill="rgb(204, 204, 204)" fill-opacity="0.25" points="16.000,86.632 20.000,86.632 20.000,61.997 16.000,61.997 " />
<polygon stroke="black" stroke-width="1" fill="rgb(204, 204, 204)" fill-opacity="0.25" points="23.997,64.001 19.997,64.001 19.997,120.001 23.997,120.001 " />
<polygon stroke="black" stroke-width="1" fill="rgb(204, 204, 204)" fill-opacity="0.25" points="34.997,120.001 23.997,120.001 23.997,124.001 34.997,124.001 " />
<polygon stroke="black" stroke-width="1" fill="rgb(204, 204, 204)" fill-opacity="0.25" points="111.000,37.000 111.000,31.000 108.500,31.000 108.500,37.000 " />
<polygon stroke="black" stroke-width="1" fill="rgb(204, 204, 204)" fill-opacity="0.25" points="95.000,44.500 111.000,44.500 111.000,42.000 95.000,42.000 " />
<polygon stroke="black" stroke-width="1" fill="rgb(204, 204, 204)" fill-opacity="0.25" points="95.000,31.000 95.000,37.000 97.500,37.000 97.500,31.000 " />
<polygon stroke="black" stroke-width="1" fill="rgb(204, 204, 204)" fill-opacity="0.25" points="92.000,61.000 77.000,61.000 77.000,63.500 92.000,63.500 " />
<polygon stroke="black" stroke-width="1" fill="rgb(204, 204, 204)" fill-opacity="0.25" points="13.000,8.000 8.000,8.000 8.000,10.000 13.000,10.000 " />
<polygon stroke="black" stroke-width="1" fill="rgb(204, 204, 204)" fill-opacity="0.25" points="13.000,4.000 8.000,4.000 8.000,8.000 13.000,8.000 " />
<polygon stroke="black" stroke-width="1" fill="rgb(204, 204, 204)" fill-opacity="0.25" points="12.000,4.000 12.000,2.000 8.000,2.000 8.000,4.000 " />
<polygon stroke="black" stroke-width="1" fill="rgb(204, 204, 204)" fill-opacity="0.25" points="13.000,8.000 8.000,8.000 8.000,10.000 13.000,10.000 " />
<polygon stroke="black" stroke-width="1" fill="rgb(204, 204, 204)" fill-opacity="0.25" points="119.000,127.500 119.000,120.000 87.000,120.000 87.000,127.500 " />
<polygon stroke="black" stroke-width="1" fill="rgb(204, 204, 204)" fill-opacity="0.25" points="122.000,127.500 122.000,120.000 119.003,120.000 119.003,127.500 " />
<polygon stroke="black" stroke-width="1" fill="rgb(204, 204, 204)" fill-opacity="0.25" points="16.000,123.997 20.000,123.997 20.000,86.632 16.000,86.632 " />
<polygon stroke="black" stroke-width="1" fill="rgb(204, 204, 204)" fill-opacity="0.25" points="5.998,127.388 15.998,123.998 5.998,123.998 " />
<polygon stroke="black" stroke-width="1" fill="rgb(204, 204, 204)" fill-opacity="0.25" points="5.997,127.389 2.011,127.389 2.011,123.998 5.997,123.998 " />
<polygon stroke="black" stroke-width="1" fill="rgb(204, 204, 204)" fill-opacity="0.25" points="2.000,123.997 6.000,123.997 6.000,86.606 2.000,86.606 " />
<polygon stroke="black" stroke-width="1" fill="rgb(204, 204, 204)" fill-opacity="0.25" points="7.982,120.714 7.982,114.623 7.982,112.467 7.982,106.377 7.982,104.220 7.982,98.129 7.982,95.967 7.982,89.876 5.997,86.606 5.998,123.998 " />
<polygon stroke="black" stroke-width="1" fill="rgb(204, 204, 204)" fill-opacity="0.25" points="13.999,89.888 13.999,95.980 13.999,98.142 13.999,104.233 13.999,106.390 13.999,112.480 13.999,114.635 13.999,120.727 15.998,123.998 16.045,86.627 " />
<polygon stroke="black" stroke-width="1" fill="rgb(204, 204, 204)" fill-opacity="0.25" points="13.999,120.727 7.982,120.714 5.998,123.998 15.998,123.998 " />
<polygon stroke="black" stroke-width="1" fill="rgb(204, 204, 204)" fill-opacity="0.25" points="7.982,89.876 13.999,89.888 16.045,86.627 5.997,86.606 " />
<polygon stroke="black" stroke-width="1" fill="rgb(204, 204, 204)" fill-opacity="0.25" points="6.000,26.000 6.000,20.000 2.000,20.000 2.000,26.000 " />
<polygon stroke="black" stroke-width="1" fill="rgb(204, 204, 204)" fill-opacity="0.25" points="7.998,113.998 13.998,113.998 13.998,111.998 7.998,111.998 " />
<polygon stroke="black" stroke-width="1" fill="rgb(204, 204, 204)" fill-opacity="0.25" points="6.000,8.000 6.000,2.000 2.000,2.000 2.000,8.000 " />
<polygon stroke="black" stroke-width="1" fill="rgb(204, 204, 204)" fill-opacity="0.25" points="7.998,105.998 13.998,105.998 13.998,103.998 7.998,103.998 " />
<polygon stroke="black" stroke-width="1" fill="rgb(204, 204, 204)" fill-opacity="0.25" points="2.000,14.000 2.000,20.000 6.000,20.000 6.000,14.000 " />
<polygon stroke="black" stroke-width="1" fill="rgb(204, 204, 204)" fill-opacity="0.25" points="7.998,97.998 13.998,97.998 13.998,95.998 7.998,95.998 " />
<polygon stroke="black" stroke-width="1" fill="rgb(204, 204, 204)" fill-opacity="0.25" points="6.000,20.000 6.000,14.000 2.000,14.000 2.000,20.000 " />
<polygon stroke="black" stroke-width="1" fill="rgb(204, 204, 204)" fill-opacity="0.25" points="2.000,8.000 2.000,14.000 6.000,14.000 6.000,8.000 " />
<polygon stroke="black" stroke-width="1" fill="rgb(204, 204, 204)" fill-opacity="0.25" points="6.000,8.000 6.000,2.000 2.000,2.000 2.000,8.000 " />
<polygon stroke="black" stroke-width="1" fill="rgb(204, 204, 204)" fill-opacity="0.25" points="2.000,20.000 2.000,26.000 6.000,26.000 6.000,20.000 " />
<polygon stroke="black" stroke-width="1" fill="rgb(204, 204, 204)" fill-opacity="0.25" points="6.000,20.000 6.000,14.000 2.000,14.000 2.000,20.000 " />
<polygon stroke="black" stroke-width="1" fill="rgb(204, 204, 204)" fill-opacity="0.25" points="6.000,26.000 6.000,20.000 2.000,20.000 2.000,26.000 " />
<polygon stroke="black" stroke-width="1" fill="rgb(204, 204, 204)" fill-opacity="0.25" points="6.000,14.000 6.000,8.000 2.000,8.000 2.000,14.000 " />
<polygon stroke="black" stroke-width="1" fill="rgb(204, 204, 204)" fill-opacity="0.25" points="6.000,14.000 6.000,8.000 2.000,8.000 2.000,14.000 " />
<polygon stroke="black" stroke-width="1" fill="rgb(204, 204, 204)" fill-opacity="0.25" points="6.000,26.000 6.000,20.000 2.000,20.000 2.000,26.000 " />
<polygon stroke="black" stroke-width="1" fill="rgb(204, 204, 204)" fill-opacity="0.25" points="6.000,20.000 6.000,14.000 2.000,14.000 2.000,20.000 " />
<polygon stroke="black" stroke-width="1" fill="rgb(204, 204, 204)" fill-opacity="0.25" points="6.000,14.000 6.000,8.000 2.000,8.000 2.000,14.000 " />
<polygon stroke="black" stroke-width="1" fill="rgb(204, 204, 204)" fill-opacity="0.25" points="6.000,8.000 6.000,2.000 2.000,2.000 2.000,8.000 " />
<polygon stroke="black" stroke-width="1" fill="rgb(204, 204, 204)" fill-opacity="0.25" points="2.000,2.000 2.000,8.000 6.000,8.000 6.000,2.000 " />

</svg>
