<?xml version="1.0" standalone="no"?>
<!DOCTYPE svg PUBLIC "-//W3C//DTD SVG 1.1//EN" 
  "http://www.w3.org/Graphics/SVG/1.1/DTD/svg11.dtd">
<svg width="128" height="128" viewBox="0 0 128 128"
     xmlns="http://www.w3.org/2000/svg" version="1.1">
<desc>HumanoidGeneric.blend, (Blender 4.2.2 LTS)</desc>
<polygon stroke="black" stroke-width="1" fill="rgb(204, 204, 204)" fill-opacity="0.25" points="30.000,30.000 30.000,16.000 16.000,16.000 16.000,30.000 " />
<polygon stroke="black" stroke-width="1" fill="rgb(204, 204, 204)" fill-opacity="0.25" points="30.000,2.000 16.000,2.000 16.000,16.000 30.000,16.000 " />
<polygon stroke="black" stroke-width="1" fill="rgb(204, 204, 204)" fill-opacity="0.25" points="2.000,16.000 2.000,30.000 16.000,30.000 16.000,16.000 " />
<polygon stroke="black" stroke-width="1" fill="rgb(204, 204, 204)" fill-opacity="0.25" points="80.000,85.000 80.000,62.000 70.000,62.000 70.000,85.000 " />
<polygon stroke="black" stroke-width="1" fill="rgb(204, 204, 204)" fill-opacity="0.25" points="31.000,98.000 31.000,85.000 13.000,85.000 13.000,98.000 " />
<polygon stroke="black" stroke-width="1" fill="rgb(204, 204, 204)" fill-opacity="0.25" points="31.000,85.000 31.000,61.000 13.000,61.000 13.000,85.000 " />
<polygon stroke="black" stroke-width="1" fill="rgb(204, 204, 204)" fill-opacity="0.25" points="45.000,85.000 45.000,61.000 31.000,61.000 31.000,85.000 " />
<polygon stroke="black" stroke-width="1" fill="rgb(204, 204, 204)" fill-opacity="0.25" points="14.000,127.000 27.000,127.000 27.000,116.000 14.000,116.000 " />
<polygon stroke="black" stroke-width="1" fill="rgb(204, 204, 204)" fill-opacity="0.25" points="14.000,99.000 14.000,110.000 27.000,110.000 27.000,99.000 " />
<polygon stroke="black" stroke-width="1" fill="rgb(204, 204, 204)" fill-opacity="0.25" points="14.000,116.000 27.000,116.000 27.000,110.000 14.000,110.000 " />
<polygon stroke="black" stroke-width="1" fill="rgb(204, 204, 204)" fill-opacity="0.25" points="4.500,116.000 14.000,116.000 14.000,110.000 4.500,110.000 " />
<polygon stroke="black" stroke-width="1" fill="rgb(204, 204, 204)" fill-opacity="0.25" points="58.000,85.000 58.000,62.000 48.000,62.000 48.000,85.000 " />
<polygon stroke="black" stroke-width="1" fill="rgb(204, 204, 204)" fill-opacity="0.25" points="70.000,85.000 70.000,62.000 58.000,62.000 58.000,85.000 " />
<polygon stroke="black" stroke-width="1" fill="rgb(204, 204, 204)" fill-opacity="0.25" points="58.000,34.000 58.000,43.000 67.000,43.000 67.000,34.000 " />
<polygon stroke="black" stroke-width="1" fill="rgb(204, 204, 204)" fill-opacity="0.25" points="67.000,11.000 67.000,34.000 76.000,34.000 76.000,11.000 " />
<polygon stroke="black" stroke-width="1" fill="rgb(204, 204, 204)" fill-opacity="0.25" points="76.000,11.000 76.000,34.000 85.000,34.000 85.000,11.000 " />
<polygon stroke="black" stroke-width="1" fill="rgb(204, 204, 204)" fill-opacity="0.25" points="58.000,2.000 58.000,11.000 67.000,11.000 67.000,2.000 " />
<polygon stroke="black" stroke-width="1" fill="rgb(204, 204, 204)" fill-opacity="0.25" points="58.000,11.000 58.000,34.000 67.000,34.000 67.000,11.000 " />
<polygon stroke="black" stroke-width="1" fill="rgb(204, 204, 204)" fill-opacity="0.25" points="49.000,11.000 49.000,34.000 58.000,34.000 58.000,11.000 " />
<polygon stroke="black" stroke-width="1" fill="rgb(204, 204, 204)" fill-opacity="0.25" points="96.000,34.000 96.000,43.000 105.000,43.000 105.000,34.000 " />
<polygon stroke="black" stroke-width="1" fill="rgb(204, 204, 204)" fill-opacity="0.25" points="105.000,11.000 105.000,34.000 114.000,34.000 114.000,11.000 " />
<polygon stroke="black" stroke-width="1" fill="rgb(204, 204, 204)" fill-opacity="0.25" points="114.000,11.000 114.000,34.000 123.000,34.000 123.000,11.000 " />
<polygon stroke="black" stroke-width="1" fill="rgb(204, 204, 204)" fill-opacity="0.25" points="96.000,2.000 96.000,11.000 105.000,11.000 105.000,2.000 " />
<polygon stroke="black" stroke-width="1" fill="rgb(204, 204, 204)" fill-opacity="0.25" points="96.000,11.000 96.000,34.000 105.000,34.000 105.000,11.000 " />
<polygon stroke="black" stroke-width="1" fill="rgb(204, 204, 204)" fill-opacity="0.25" points="87.000,11.000 87.000,34.000 96.000,34.000 96.000,11.000 " />
<polygon stroke="black" stroke-width="1" fill="rgb(204, 204, 204)" fill-opacity="0.25" points="50.000,117.000 50.000,126.000 59.000,126.000 59.000,117.000 " />
<polygon stroke="black" stroke-width="1" fill="rgb(204, 204, 204)" fill-opacity="0.25" points="59.000,108.000 59.000,117.000 68.000,117.000 68.000,108.000 " />
<polygon stroke="black" stroke-width="1" fill="rgb(204, 204, 204)" fill-opacity="0.25" points="68.000,108.000 68.000,117.000 77.000,117.000 77.000,108.000 " />
<polygon stroke="black" stroke-width="1" fill="rgb(204, 204, 204)" fill-opacity="0.25" points="50.000,99.000 50.000,108.000 59.000,108.000 59.000,99.000 " />
<polygon stroke="black" stroke-width="1" fill="rgb(204, 204, 204)" fill-opacity="0.25" points="50.000,108.000 50.000,117.000 59.000,117.000 59.000,108.000 " />
<polygon stroke="black" stroke-width="1" fill="rgb(204, 204, 204)" fill-opacity="0.25" points="41.000,108.000 41.000,117.000 50.000,117.000 50.000,108.000 " />
<polygon stroke="black" stroke-width="1" fill="rgb(204, 204, 204)" fill-opacity="0.25" points="13.000,85.000 13.000,61.000 -0.000,61.000 -0.000,85.000 " />
<polygon stroke="black" stroke-width="1" fill="rgb(204, 204, 204)" fill-opacity="0.25" points="31.000,61.000 31.000,48.000 13.000,48.000 13.000,61.000 " />
<polygon stroke="black" stroke-width="1" fill="rgb(204, 204, 204)" fill-opacity="0.25" points="27.000,116.000 37.500,116.000 37.500,110.000 27.000,110.000 " />
<polygon stroke="black" stroke-width="1" fill="rgb(204, 204, 204)" fill-opacity="0.25" points="92.000,85.000 92.000,62.000 80.000,62.000 80.000,85.000 " />
<polygon stroke="black" stroke-width="1" fill="rgb(204, 204, 204)" fill-opacity="0.25" points="70.000,62.000 70.000,51.000 58.000,51.000 58.000,62.000 " />
<polygon stroke="black" stroke-width="1" fill="rgb(204, 204, 204)" fill-opacity="0.25" points="70.000,96.000 70.000,85.000 58.000,85.000 58.000,96.000 " />
<polygon stroke="black" stroke-width="1" fill="rgb(204, 204, 204)" fill-opacity="0.25" points="16.000,2.000 2.000,2.000 2.000,16.000 16.000,16.000 " />
<polygon stroke="black" stroke-width="1" fill="rgb(204, 204, 204)" fill-opacity="0.25" points="119.000,86.000 119.000,63.000 111.000,63.000 111.000,86.000 " />
<polygon stroke="black" stroke-width="1" fill="rgb(204, 204, 204)" fill-opacity="0.25" points="102.000,86.000 102.000,63.000 94.000,63.000 94.000,86.000 " />
<polygon stroke="black" stroke-width="1" fill="rgb(204, 204, 204)" fill-opacity="0.25" points="111.000,86.000 111.000,63.000 102.000,63.000 102.000,86.000 " />
<polygon stroke="black" stroke-width="1" fill="rgb(204, 204, 204)" fill-opacity="0.25" points="128.000,86.000 128.000,63.000 119.000,63.000 119.000,86.000 " />
<polygon stroke="black" stroke-width="1" fill="rgb(204, 204, 204)" fill-opacity="0.25" points="111.000,63.000 111.000,55.000 102.000,55.000 102.000,63.000 " />
<polygon stroke="black" stroke-width="1" fill="rgb(204, 204, 204)" fill-opacity="0.25" points="111.000,94.000 111.000,86.000 102.000,86.000 102.000,94.000 " />
<polygon stroke="black" stroke-width="1" fill="rgb(204, 204, 204)" fill-opacity="0.25" points="92.000,95.000 92.000,109.000 103.000,109.000 103.000,95.000 " />
<polygon stroke="black" stroke-width="1" fill="rgb(204, 204, 204)" fill-opacity="0.25" points="117.000,127.000 117.000,116.000 103.000,116.000 103.000,127.000 " />
<polygon stroke="black" stroke-width="1" fill="rgb(204, 204, 204)" fill-opacity="0.25" points="92.000,109.000 78.000,109.000 78.000,116.000 92.000,116.000 " />
<polygon stroke="black" stroke-width="1" fill="rgb(204, 204, 204)" fill-opacity="0.25" points="128.000,109.000 117.000,109.000 117.000,116.000 128.000,116.000 " />
<polygon stroke="black" stroke-width="1" fill="rgb(204, 204, 204)" fill-opacity="0.25" points="103.000,109.000 92.000,109.000 92.000,116.000 103.000,116.000 " />
<polygon stroke="black" stroke-width="1" fill="rgb(204, 204, 204)" fill-opacity="0.25" points="117.000,109.000 103.000,109.000 103.000,116.000 117.000,116.000 " />
<polygon stroke="black" stroke-width="1" fill="rgb(204, 204, 204)" fill-opacity="0.25" points="44.000,30.000 44.000,16.000 30.000,16.000 30.000,30.000 " />
<polygon stroke="black" stroke-width="1" fill="rgb(204, 204, 204)" fill-opacity="0.25" points="80.000,85.000 70.000,85.000 70.000,62.000 80.000,62.000 " />
<polygon stroke="black" stroke-width="1" fill="rgb(204, 204, 204)" fill-opacity="0.25" points="31.000,98.000 13.000,98.000 13.000,85.000 31.000,85.000 " />
<polygon stroke="black" stroke-width="1" fill="rgb(204, 204, 204)" fill-opacity="0.25" points="31.000,85.000 13.000,85.000 13.000,61.000 31.000,61.000 " />
<polygon stroke="black" stroke-width="1" fill="rgb(204, 204, 204)" fill-opacity="0.25" points="45.000,85.000 31.000,85.000 31.000,61.000 45.000,61.000 " />
<polygon stroke="black" stroke-width="1" fill="rgb(204, 204, 204)" fill-opacity="0.25" points="14.000,127.000 14.000,116.000 27.000,116.000 27.000,127.000 " />
<polygon stroke="black" stroke-width="1" fill="rgb(204, 204, 204)" fill-opacity="0.25" points="14.000,99.000 27.000,99.000 27.000,110.000 14.000,110.000 " />
<polygon stroke="black" stroke-width="1" fill="rgb(204, 204, 204)" fill-opacity="0.25" points="14.000,116.000 14.000,110.000 27.000,110.000 27.000,116.000 " />
<polygon stroke="black" stroke-width="1" fill="rgb(204, 204, 204)" fill-opacity="0.25" points="4.500,116.000 4.500,110.000 14.000,110.000 14.000,116.000 " />
<polygon stroke="black" stroke-width="1" fill="rgb(204, 204, 204)" fill-opacity="0.25" points="58.000,85.000 48.000,85.000 48.000,62.000 58.000,62.000 " />
<polygon stroke="black" stroke-width="1" fill="rgb(204, 204, 204)" fill-opacity="0.25" points="70.000,85.000 58.000,85.000 58.000,62.000 70.000,62.000 " />
<polygon stroke="black" stroke-width="1" fill="rgb(204, 204, 204)" fill-opacity="0.25" points="58.000,34.000 67.000,34.000 67.000,43.000 58.000,43.000 " />
<polygon stroke="black" stroke-width="1" fill="rgb(204, 204, 204)" fill-opacity="0.25" points="67.000,11.000 76.000,11.000 76.000,34.000 67.000,34.000 " />
<polygon stroke="black" stroke-width="1" fill="rgb(204, 204, 204)" fill-opacity="0.25" points="76.000,11.000 85.000,11.000 85.000,34.000 76.000,34.000 " />
<polygon stroke="black" stroke-width="1" fill="rgb(204, 204, 204)" fill-opacity="0.25" points="58.000,2.000 67.000,2.000 67.000,11.000 58.000,11.000 " />
<polygon stroke="black" stroke-width="1" fill="rgb(204, 204, 204)" fill-opacity="0.25" points="58.000,11.000 67.000,11.000 67.000,34.000 58.000,34.000 " />
<polygon stroke="black" stroke-width="1" fill="rgb(204, 204, 204)" fill-opacity="0.25" points="49.000,11.000 58.000,11.000 58.000,34.000 49.000,34.000 " />
<polygon stroke="black" stroke-width="1" fill="rgb(204, 204, 204)" fill-opacity="0.25" points="96.000,34.000 105.000,34.000 105.000,43.000 96.000,43.000 " />
<polygon stroke="black" stroke-width="1" fill="rgb(204, 204, 204)" fill-opacity="0.25" points="105.000,11.000 114.000,11.000 114.000,34.000 105.000,34.000 " />
<polygon stroke="black" stroke-width="1" fill="rgb(204, 204, 204)" fill-opacity="0.25" points="114.000,11.000 123.000,11.000 123.000,34.000 114.000,34.000 " />
<polygon stroke="black" stroke-width="1" fill="rgb(204, 204, 204)" fill-opacity="0.25" points="96.000,2.000 105.000,2.000 105.000,11.000 96.000,11.000 " />
<polygon stroke="black" stroke-width="1" fill="rgb(204, 204, 204)" fill-opacity="0.25" points="96.000,11.000 105.000,11.000 105.000,34.000 96.000,34.000 " />
<polygon stroke="black" stroke-width="1" fill="rgb(204, 204, 204)" fill-opacity="0.25" points="87.000,11.000 96.000,11.000 96.000,34.000 87.000,34.000 " />
<polygon stroke="black" stroke-width="1" fill="rgb(204, 204, 204)" fill-opacity="0.25" points="50.000,117.000 59.000,117.000 59.000,126.000 50.000,126.000 " />
<polygon stroke="black" stroke-width="1" fill="rgb(204, 204, 204)" fill-opacity="0.25" points="59.000,108.000 68.000,108.000 68.000,117.000 59.000,117.000 " />
<polygon stroke="black" stroke-width="1" fill="rgb(204, 204, 204)" fill-opacity="0.25" points="68.000,108.000 77.000,108.000 77.000,117.000 68.000,117.000 " />
<polygon stroke="black" stroke-width="1" fill="rgb(204, 204, 204)" fill-opacity="0.25" points="50.000,99.000 59.000,99.000 59.000,108.000 50.000,108.000 " />
<polygon stroke="black" stroke-width="1" fill="rgb(204, 204, 204)" fill-opacity="0.25" points="50.000,108.000 59.000,108.000 59.000,117.000 50.000,117.000 " />
<polygon stroke="black" stroke-width="1" fill="rgb(204, 204, 204)" fill-opacity="0.25" points="41.000,108.000 50.000,108.000 50.000,117.000 41.000,117.000 " />
<polygon stroke="black" stroke-width="1" fill="rgb(204, 204, 204)" fill-opacity="0.25" points="13.000,85.000 -0.000,85.000 -0.000,61.000 13.000,61.000 " />
<polygon stroke="black" stroke-width="1" fill="rgb(204, 204, 204)" fill-opacity="0.25" points="31.000,61.000 13.000,61.000 13.000,48.000 31.000,48.000 " />
<polygon stroke="black" stroke-width="1" fill="rgb(204, 204, 204)" fill-opacity="0.25" points="27.000,116.000 27.000,110.000 37.500,110.000 37.500,116.000 " />
<polygon stroke="black" stroke-width="1" fill="rgb(204, 204, 204)" fill-opacity="0.25" points="92.000,85.000 80.000,85.000 80.000,62.000 92.000,62.000 " />
<polygon stroke="black" stroke-width="1" fill="rgb(204, 204, 204)" fill-opacity="0.25" points="70.000,62.000 58.000,62.000 58.000,51.000 70.000,51.000 " />
<polygon stroke="black" stroke-width="1" fill="rgb(204, 204, 204)" fill-opacity="0.25" points="70.000,96.000 58.000,96.000 58.000,85.000 70.000,85.000 " />
<polygon stroke="black" stroke-width="1" fill="rgb(204, 204, 204)" fill-opacity="0.25" points="119.000,86.000 111.000,86.000 111.000,63.000 119.000,63.000 " />
<polygon stroke="black" stroke-width="1" fill="rgb(204, 204, 204)" fill-opacity="0.25" points="102.000,86.000 94.000,86.000 94.000,63.000 102.000,63.000 " />
<polygon stroke="black" stroke-width="1" fill="rgb(204, 204, 204)" fill-opacity="0.25" points="111.000,86.000 102.000,86.000 102.000,63.000 111.000,63.000 " />
<polygon stroke="black" stroke-width="1" fill="rgb(204, 204, 204)" fill-opacity="0.25" points="128.000,86.000 119.000,86.000 119.000,63.000 128.000,63.000 " />
<polygon stroke="black" stroke-width="1" fill="rgb(204, 204, 204)" fill-opacity="0.25" points="111.000,63.000 102.000,63.000 102.000,55.000 111.000,55.000 " />
<polygon stroke="black" stroke-width="1" fill="rgb(204, 204, 204)" fill-opacity="0.25" points="111.000,94.000 102.000,94.000 102.000,86.000 111.000,86.000 " />
<polygon stroke="black" stroke-width="1" fill="rgb(204, 204, 204)" fill-opacity="0.25" points="92.000,95.000 103.000,95.000 103.000,109.000 92.000,109.000 " />
<polygon stroke="black" stroke-width="1" fill="rgb(204, 204, 204)" fill-opacity="0.25" points="117.000,127.000 103.000,127.000 103.000,116.000 117.000,116.000 " />
<polygon stroke="black" stroke-width="1" fill="rgb(204, 204, 204)" fill-opacity="0.25" points="92.000,109.000 92.000,116.000 78.000,116.000 78.000,109.000 " />
<polygon stroke="black" stroke-width="1" fill="rgb(204, 204, 204)" fill-opacity="0.25" points="128.000,109.000 128.000,116.000 117.000,116.000 117.000,109.000 " />
<polygon stroke="black" stroke-width="1" fill="rgb(204, 204, 204)" fill-opacity="0.25" points="103.000,109.000 103.000,116.000 92.000,116.000 92.000,109.000 " />
<polygon stroke="black" stroke-width="1" fill="rgb(204, 204, 204)" fill-opacity="0.25" points="117.000,109.000 117.000,116.000 103.000,116.000 103.000,109.000 " />
<polygon stroke="black" stroke-width="1" fill="rgb(204, 204, 204)" fill-opacity="0.25" points="44.000,16.000 44.000,2.000 30.000,2.000 30.000,16.000 " />

</svg>
